<svg xmlns="http://www.w3.org/2000/svg" xmlns:xlink="http://www.w3.org/1999/xlink" width="500" zoomAndPan="magnify" viewBox="0 0 375 374.999991" height="500" preserveAspectRatio="xMidYMid meet" version="1.0"><defs><g/><clipPath id="id1"><path d="M 42 40 L 299 40 L 299 375 L 42 375 Z M 42 40 " clip-rule="nonzero"/></clipPath><clipPath id="id2"><path d="M -27.765625 96.789062 L 369.878906 -44.878906 L 511.546875 352.765625 L 113.902344 494.433594 Z M -27.765625 96.789062 " clip-rule="nonzero"/></clipPath><clipPath id="id3"><path d="M -27.765625 96.789062 L 369.878906 -44.878906 L 511.546875 352.765625 L 113.902344 494.433594 Z M -27.765625 96.789062 " clip-rule="nonzero"/></clipPath></defs><path fill="#4eb398" d="M 348.601562 0 L 348.675781 0.0742188 L 348.675781 0 L 348.601562 0 M 0 348.601562 L 0 348.675781 L 0.0742188 348.675781 L 0 348.601562 " fill-opacity="1" fill-rule="nonzero"/><path fill="#4eb398" d="M 375 26.398438 L 375 348.675781 L 348.601562 375 L 26.398438 375 L 0 348.601562 L 0 26.398438 L 26.398438 0 L 348.601562 0 L 375 26.398438 " fill-opacity="1" fill-rule="nonzero"/><g clip-path="url(#id1)"><g clip-path="url(#id2)"><g clip-path="url(#id3)"><path fill="#a75aa3" d="M 44.75 117.199219 C 41.902344 120.273438 41.992188 122.035156 45.722656 129.488281 C 47.511719 133.246094 51.3125 141.65625 54.121094 148.277344 C 62.78125 168.3125 78.910156 206.035156 87.164062 225.679688 C 90.445312 233.382812 95.496094 245.296875 98.386719 252.152344 C 101.277344 259.007812 106.328125 270.921875 109.613281 278.625 C 112.816406 286.355469 118.0625 298.828125 121.261719 306.292969 C 124.378906 313.785156 129.742188 326.574219 133.195312 334.753906 C 136.617188 342.855469 141.867188 355.324219 144.84375 362.417969 C 147.820312 369.515625 153.238281 382.460938 156.917969 391.277344 C 169.75 422.019531 171.316406 425.402344 173.527344 426.585938 C 176.28125 428.027344 181.054688 426.324219 182.277344 423.46875 C 183.296875 421.046875 181.222656 414.972656 172.050781 393.503906 C 169.160156 386.648438 163.910156 374.179688 160.402344 365.839844 C 152.398438 346.644531 143.835938 326.390625 136.675781 309.3125 C 113.996094 255.464844 114.8125 257.503906 115.609375 257.21875 C 115.925781 257.105469 116.019531 256.355469 115.734375 255.5625 C 115.339844 254.449219 116.28125 253.574219 120.054688 251.335938 C 122.667969 249.867188 126.078125 248.113281 127.507812 247.601562 C 129.019531 247.066406 132.007812 245.640625 134.25 244.394531 C 136.46875 243.066406 140.824219 240.707031 143.914062 239.070312 C 151.761719 234.929688 158.984375 230.296875 174.230469 219.753906 C 193.242188 206.707031 217.191406 183.117188 232.652344 162.375 C 247.257812 142.742188 255.8125 127.503906 273.570312 89.808594 C 282.144531 71.609375 290.964844 53.855469 293.136719 50.394531 C 295.390625 46.902344 297.425781 43.308594 297.804688 42.367188 C 298.335938 40.835938 298.199219 40.703125 296.769531 41.214844 C 295.8125 41.554688 294.414062 42.410156 293.523438 43.175781 C 292.632812 43.941406 289.972656 45.785156 287.519531 47.199219 C 274.9375 54.90625 266.171875 60.988281 250.242188 73.382812 C 240.652344 80.925781 231.292969 88.113281 229.5 89.378906 C 227.710938 90.644531 225.5 92.238281 224.5 92.953125 C 220.160156 96.113281 212.71875 100.375 198.921875 107.441406 C 187.242188 113.394531 164.019531 120.414062 149.402344 122.394531 C 147.113281 122.765625 144.023438 123.148438 142.585938 123.390625 C 136.996094 124.304688 128.496094 125.09375 122.648438 125.292969 C 119.261719 125.335938 114.671875 125.539062 112.484375 125.691406 C 110.269531 125.761719 108.105469 125.726562 107.566406 125.46875 C 106.976562 125.324219 106.066406 125.289062 105.511719 125.484375 C 104.875 125.710938 102.632812 125.707031 100.570312 125.453125 C 98.429688 125.230469 96.34375 125.167969 95.949219 125.308594 C 94.039062 125.988281 56.179688 121.101562 55.839844 120.148438 C 55.074219 118 51.578125 115.484375 49.171875 115.265625 C 46.308594 115.03125 46.835938 114.753906 44.75 117.199219 Z M 55.074219 136.105469 C 61.058594 149.390625 61.890625 152.230469 59.246094 150.839844 C 58.277344 150.378906 56.03125 146.339844 52.894531 139.300781 C 46.289062 124.539062 46.121094 124.058594 47.984375 123.753906 C 49.261719 123.566406 50.203125 125.203125 55.074219 136.105469 Z M 89.824219 132.777344 C 112.019531 134.191406 133.84375 133.316406 147.804688 130.492188 C 152.671875 129.566406 154.621094 129.5 154.933594 130.375 C 156.234375 134.03125 124.582031 137.511719 99.273438 136.402344 C 81.257812 135.648438 75.449219 134.941406 74.96875 133.589844 C 74.457031 132.15625 77.285156 132.046875 89.824219 132.777344 Z M 262.320312 73.832031 C 262.882812 77.664062 232.808594 99.671875 210.574219 111.714844 C 199.824219 117.515625 185.542969 124.21875 184.785156 123.859375 C 184.382812 123.734375 184.128906 123.019531 184.140625 122.296875 C 184.175781 121.390625 186.152344 120.148438 190.625 118.105469 C 206.554688 110.996094 224.289062 100.914062 237.792969 91.265625 C 244.871094 86.230469 257.457031 76.28125 259.023438 74.378906 C 260.585938 72.476562 262.101562 72.207031 262.320312 73.832031 Z M 62.976562 154.261719 C 63.410156 154.734375 64.75 157.484375 66.035156 160.34375 C 68.269531 165.101562 68.359375 165.609375 67.007812 166.089844 C 65.816406 166.515625 65.054688 165.890625 63.636719 163.167969 C 60.605469 157.167969 59.773438 154.328125 61.125 153.847656 C 61.839844 153.59375 62.644531 153.84375 62.976562 154.261719 Z M 169.707031 125.558594 C 171.171875 125.394531 172.539062 125.714844 172.738281 126.269531 C 173.222656 127.621094 164.160156 131.121094 162.910156 130.128906 C 160.792969 128.464844 163.851562 126.480469 169.707031 125.558594 Z M 169.707031 125.558594 " fill-opacity="1" fill-rule="nonzero"/></g></g></g><g fill="#000000" fill-opacity="1"><g transform="translate(110.626697, 224.465029)"><g><path d="M 1.652344 -65.042969 L -22.171875 -51.644531 C -23.089844 -51.128906 -23.429688 -49.917969 -22.875 -48.929688 C -22.359375 -48.015625 -21.148438 -47.675781 -20.230469 -48.191406 L -10.363281 -53.738281 L 6.613281 -7.707031 C 7.027344 -6.640625 8.175781 -6.082031 9.242188 -6.496094 C 9.3125 -6.535156 9.382812 -6.574219 9.527344 -6.65625 C 10.300781 -7.089844 10.71875 -8.160156 10.386719 -9.085938 L -6.796875 -55.652344 L 3.636719 -61.519531 C 4.621094 -62.074219 4.921875 -63.355469 4.40625 -64.269531 C 3.851562 -65.257812 2.640625 -65.597656 1.652344 -65.042969 Z M 1.652344 -65.042969 "/></g></g></g><g fill="#000000" fill-opacity="1"><g transform="translate(137.69421, 209.245118)"><g><path d="M 10.8125 -30.109375 C 9.292969 -32.316406 6.945312 -33.6875 4.375 -33.636719 C 1.617188 -33.753906 -0.949219 -32.21875 -2.816406 -29.59375 C -5.386719 -25.917969 -7.121094 -19.097656 -3.808594 -12.054688 C -2.078125 -8.480469 0.0234375 -6.230469 2.59375 -5.449219 C 4.65625 -4.753906 6.886719 -5.078125 9.140625 -6.347656 C 11.328125 -7.574219 13.074219 -10.414062 13.949219 -13.96875 C 14.703125 -17.082031 15.269531 -23.339844 10.8125 -30.109375 Z M 10.035156 -14.828125 C 9.402344 -12.152344 8.078125 -10.386719 7.160156 -9.871094 C 5.890625 -9.15625 4.816406 -8.925781 3.785156 -9.273438 C 2.425781 -9.714844 1.011719 -11.238281 -0.125 -13.753906 C -2.65625 -18.917969 -1.617188 -24.328125 0.449219 -27.253906 C 1.058594 -28.152344 1.714844 -28.796875 2.417969 -29.195312 C 3.054688 -29.550781 3.695312 -29.726562 4.347656 -29.722656 C 5.582031 -29.675781 6.699219 -29.003906 7.476562 -27.957031 C 11.148438 -22.414062 10.632812 -17.390625 10.035156 -14.828125 Z M 10.035156 -14.828125 "/></g></g></g><g fill="#000000" fill-opacity="1"><g transform="translate(160.602921, 196.363678)"><g><path d="M 9.054688 -37.195312 C 8.089844 -36.929688 7.480469 -36.03125 7.566406 -35.058594 C 9.191406 -17.972656 7.433594 -10.210938 5.367188 -8.769531 C 5.15625 -8.652344 4.84375 -8.382812 3.953125 -8.808594 C 2.691406 -9.402344 0.222656 -13.300781 -1.851562 -19.464844 C -3.214844 -23.707031 -4.347656 -26.875 -4.347656 -26.875 C -4.652344 -27.910156 -5.800781 -28.46875 -6.90625 -28.125 C -7.902344 -27.75 -8.464844 -26.601562 -8.089844 -25.605469 C -8.089844 -25.605469 -7.027344 -22.398438 -5.59375 -18.195312 C -4.195312 -14.0625 -1.347656 -6.851562 2.28125 -5.179688 C 4.171875 -4.292969 6.160156 -4.390625 7.660156 -5.515625 C 10.988281 -7.847656 12.039062 -14.5625 12.179688 -22.066406 L 15.773438 -12.210938 C 16.148438 -11.214844 17.296875 -10.652344 18.292969 -11.027344 C 18.433594 -11.109375 18.503906 -11.148438 18.644531 -11.226562 C 19.421875 -11.664062 19.878906 -12.664062 19.546875 -13.589844 L 11.433594 -35.933594 C 11.097656 -36.859375 10.058594 -37.386719 9.054688 -37.195312 Z M 9.054688 -37.195312 "/></g></g></g><g fill="#000000" fill-opacity="1"><g transform="translate(186.190183, 181.976104)"><g><path d="M 9.570312 -34.792969 C 9.277344 -34.816406 2.472656 -35.535156 -1.507812 -27.265625 C -2.066406 -26.117188 -2.429688 -24.613281 -2.53125 -22.980469 L -4.195312 -27.425781 C -4.609375 -28.492188 -5.71875 -28.980469 -6.714844 -28.605469 C -7.78125 -28.191406 -8.339844 -27.042969 -7.964844 -26.046875 L 0.398438 -3.75 C 0.769531 -2.753906 1.882812 -2.265625 2.917969 -2.566406 C 2.988281 -2.609375 3.128906 -2.6875 3.199219 -2.726562 C 4.042969 -3.203125 4.472656 -4.09375 4.207031 -5.058594 C 2.363281 -10.976562 0.28125 -21.777344 2.050781 -25.554688 C 4.75 -31.15625 8.929688 -30.816406 9.039062 -30.785156 C 10.132812 -30.65625 11.140625 -31.503906 11.269531 -32.59375 C 11.398438 -33.6875 10.664062 -34.664062 9.570312 -34.792969 Z M 9.570312 -34.792969 "/></g></g></g><g fill="#000000" fill-opacity="1"><g transform="translate(173.091325, 307.707219)"><g><path d="M 4.667969 -62.65625 C -0.0507812 -63.621094 -9.726562 -63.003906 -12.277344 -53.683594 C -15.15625 -43.621094 -12.824219 -31.386719 -11.132812 -26.398438 C -7.644531 -15.742188 -1.832031 -3.421875 6.304688 -5.121094 C 12.222656 -6.316406 14.394531 -17.464844 15.210938 -26.738281 L 19.707031 -13.957031 C 20.121094 -12.890625 21.273438 -12.332031 22.378906 -12.675781 C 22.449219 -12.714844 22.589844 -12.792969 22.660156 -12.835938 C 23.503906 -13.308594 23.925781 -14.378906 23.589844 -15.304688 L 15.421875 -38.082031 C 15.085938 -39.007812 14.117188 -39.578125 13.183594 -39.421875 C 12.179688 -39.230469 11.460938 -38.359375 11.472656 -37.347656 C 11.5625 -24.316406 9.15625 -9.789062 5.460938 -9.101562 C 1.589844 -8.226562 -3.285156 -15.410156 -7.28125 -27.636719 C -8.773438 -32.273438 -10.945312 -43.390625 -8.351562 -52.644531 C -6.132812 -60.570312 3.40625 -58.789062 3.847656 -58.667969 C 4.980469 -58.46875 5.996094 -59.132812 6.265625 -60.304688 C 6.503906 -61.367188 5.796875 -62.457031 4.667969 -62.65625 Z M 4.667969 -62.65625 "/></g></g></g><g fill="#000000" fill-opacity="1"><g transform="translate(204.38814, 290.109195)"><g><path d="M 9.5625 -36.457031 C 8.597656 -36.195312 7.917969 -35.257812 8 -34.28125 C 8.058594 -33.851562 8.117188 -33.417969 8.101562 -32.949219 C 6.640625 -33.238281 4.824219 -33.332031 2.972656 -32.660156 C 0.269531 -31.699219 -1.722656 -29.464844 -2.890625 -25.929688 C -5.847656 -17.496094 -3.636719 -7.789062 0.199219 -4.101562 C 1.761719 -2.476562 3.664062 -2.0625 5.445312 -2.691406 C 5.65625 -2.808594 5.980469 -2.898438 6.191406 -3.015625 C 10.914062 -5.671875 12.179688 -14.640625 12.414062 -22.476562 L 16.53125 -11.523438 C 16.90625 -10.527344 18.125 -10.007812 19.121094 -10.378906 C 20.1875 -10.792969 20.675781 -11.90625 20.261719 -12.972656 L 11.871094 -35.160156 C 11.535156 -36.082031 10.566406 -36.652344 9.5625 -36.457031 Z M 3.996094 -6.421875 C 3.675781 -6.335938 3.1875 -6.710938 2.957031 -6.953125 C 0.375 -9.398438 -1.675781 -17.335938 0.902344 -24.632812 C 1.527344 -26.652344 2.550781 -27.96875 3.75 -28.644531 C 3.890625 -28.722656 4.101562 -28.84375 4.3125 -28.960938 C 5.699219 -29.464844 7.3125 -29.070312 8.414062 -28.761719 C 8.949219 -14.773438 6.339844 -7.371094 3.996094 -6.421875 Z M 3.996094 -6.421875 "/></g></g></g><g fill="#000000" fill-opacity="1"><g transform="translate(230.257353, 275.563082)"><g><path d="M 6.476562 -35.835938 L 0.765625 -32.628906 L -7.976562 -57.585938 C -8.351562 -58.582031 -9.503906 -59.140625 -10.539062 -58.835938 C -11.605469 -58.421875 -12.164062 -57.273438 -11.789062 -56.277344 L -2.828125 -30.605469 L -9.382812 -26.917969 C -10.371094 -26.363281 -10.710938 -25.152344 -10.15625 -24.164062 C -9.601562 -23.179688 -8.390625 -22.839844 -7.402344 -23.394531 L -1.410156 -26.761719 L 5.652344 -6.613281 C 5.996094 -5.507812 7.105469 -5.015625 8.210938 -5.359375 C 8.28125 -5.398438 8.355469 -5.441406 8.496094 -5.519531 C 9.339844 -5.996094 9.726562 -6.953125 9.394531 -7.878906 L 2.113281 -28.746094 L 8.460938 -32.3125 C 9.445312 -32.867188 9.785156 -34.078125 9.230469 -35.066406 C 8.675781 -36.054688 7.464844 -36.394531 6.476562 -35.835938 Z M 6.476562 -35.835938 "/></g></g></g><g fill="#000000" fill-opacity="1"><g transform="translate(251.403863, 263.672518)"><g><path d="M 8.195312 -34.761719 C 6.238281 -34.777344 4.46875 -33.964844 3.023438 -32.410156 C 0.382812 -29.347656 -0.410156 -23.335938 -0.460938 -17.648438 L -13.574219 -53.511719 C -13.988281 -54.578125 -15.097656 -55.066406 -16.203125 -54.722656 C -17.199219 -54.347656 -17.757812 -53.199219 -17.34375 -52.132812 L 0.699219 -2.714844 C 1.074219 -1.71875 2.113281 -1.1875 3.078125 -1.453125 C 3.21875 -1.53125 3.402344 -1.542969 3.613281 -1.660156 C 4.316406 -2.058594 4.675781 -2.90625 4.601562 -3.699219 C 3.269531 -11.675781 2.585938 -25.761719 6.085938 -29.769531 C 6.699219 -30.488281 7.304688 -30.734375 8.027344 -30.769531 C 9.796875 -30.097656 13.992188 -21.320312 17.015625 -11.980469 C 17.390625 -10.984375 18.507812 -10.316406 19.574219 -10.730469 C 20.609375 -11.03125 21.171875 -12.183594 20.867188 -13.21875 C 15.082031 -30.933594 10.84375 -34.675781 8.195312 -34.761719 Z M 8.195312 -34.761719 "/></g></g></g><g fill="#000000" fill-opacity="1"><g transform="translate(277.555025, 248.967865)"><g><path d="M 14.351562 -16.882812 C 13.390625 -14.300781 11.492188 -10.914062 7.828125 -9.503906 C 6.160156 -8.84375 4.527344 -8.945312 2.996094 -9.851562 C 2.476562 -10.113281 1.988281 -10.488281 1.53125 -10.972656 C 3.839844 -12.644531 7.65625 -16.085938 10.292969 -22.117188 C 11.988281 -26.039062 12.023438 -29.769531 10.464844 -32.046875 C 9.410156 -33.589844 7.742188 -34.414062 5.644531 -34.347656 C 3.476562 -34.242188 0.808594 -32.554688 -1.378906 -29.84375 C -4.59375 -25.992188 -5.984375 -21.039062 -5.261719 -16.617188 C -4.867188 -14.429688 -4.1875 -12.398438 -3.277344 -10.777344 C -3.238281 -10.707031 -3.238281 -10.707031 -3.238281 -10.707031 C -3.117188 -10.496094 -3.039062 -10.351562 -2.957031 -10.210938 C -1.9375 -8.558594 -0.53125 -7.214844 0.996094 -6.3125 C 3.566406 -4.878906 6.472656 -4.660156 9.207031 -5.734375 C 9.882812 -6.019531 10.484375 -6.265625 10.980469 -6.542969 C 14.925781 -8.765625 16.988281 -12.523438 18.113281 -15.472656 C 18.460938 -16.503906 17.898438 -17.671875 16.867188 -18.019531 C 15.867188 -18.480469 14.699219 -17.914062 14.351562 -16.882812 Z M -1.34375 -17.242188 C -1.832031 -20.585938 -0.714844 -24.371094 1.675781 -27.382812 C 2.664062 -28.589844 3.675781 -29.4375 4.519531 -29.914062 C 5.085938 -30.230469 5.515625 -30.285156 5.835938 -30.375 C 6.671875 -30.378906 7.007812 -30.105469 7.167969 -29.824219 C 7.753906 -28.949219 7.867188 -26.597656 6.632812 -23.679688 C 4.414062 -18.71875 1.332031 -15.78125 -0.59375 -14.417969 C -0.886719 -15.273438 -1.152344 -16.238281 -1.34375 -17.242188 Z M -1.34375 -17.242188 "/></g></g></g><g fill="#000000" fill-opacity="1"><g transform="translate(301.380086, 235.571167)"><g><path d="M 9.570312 -34.792969 C 9.277344 -34.816406 2.472656 -35.535156 -1.507812 -27.265625 C -2.066406 -26.117188 -2.429688 -24.613281 -2.53125 -22.980469 L -4.195312 -27.425781 C -4.609375 -28.492188 -5.71875 -28.980469 -6.714844 -28.605469 C -7.78125 -28.191406 -8.339844 -27.042969 -7.964844 -26.046875 L 0.398438 -3.75 C 0.769531 -2.753906 1.882812 -2.265625 2.917969 -2.566406 C 2.988281 -2.609375 3.128906 -2.6875 3.199219 -2.726562 C 4.042969 -3.203125 4.472656 -4.09375 4.207031 -5.058594 C 2.363281 -10.976562 0.28125 -21.777344 2.050781 -25.554688 C 4.75 -31.15625 8.929688 -30.816406 9.039062 -30.785156 C 10.132812 -30.65625 11.140625 -31.503906 11.269531 -32.59375 C 11.398438 -33.6875 10.664062 -34.664062 9.570312 -34.792969 Z M 9.570312 -34.792969 "/></g></g></g></svg>